HIERARCHY
ROOT Hips
{
	OFFSET 0.00000 0.00000 0.00000
	CHANNELS 6 Xposition Yposition Zposition Zrotation Yrotation Xrotation 
	JOINT LHipJoint
	{
		OFFSET 0 0 0
		CHANNELS 3 Zrotation Yrotation Xrotation
		JOINT LeftUpLeg
		{
			OFFSET 1.64549 -1.70879 0.84566
			CHANNELS 3 Zrotation Yrotation Xrotation
			JOINT LeftLeg
			{
				OFFSET 2.24963 -6.18082 0.00000
				CHANNELS 3 Zrotation Yrotation Xrotation
				JOINT LeftFoot
				{
					OFFSET 2.71775 -7.46697 0.00000
					CHANNELS 3 Zrotation Yrotation Xrotation
					JOINT LeftToeBase
					{
						OFFSET 0.18768 -0.51564 2.24737
						CHANNELS 3 Zrotation Yrotation Xrotation
						End Site
						{
							OFFSET 0.00000 -0.00000 1.15935
						}
					}
				}
			}
		}
	}
	JOINT RHipJoint
	{
		OFFSET 0 0 0
		CHANNELS 3 Zrotation Yrotation Xrotation
		JOINT RightUpLeg
		{
			OFFSET -1.58830 -1.70879 0.84566
			CHANNELS 3 Zrotation Yrotation Xrotation
			JOINT RightLeg
			{
				OFFSET -2.25006 -6.18201 0.00000
				CHANNELS 3 Zrotation Yrotation Xrotation
				JOINT RightFoot
				{
					OFFSET -2.72829 -7.49593 0.00000
					CHANNELS 3 Zrotation Yrotation Xrotation
					JOINT RightToeBase
					{
						OFFSET -0.21541 -0.59185 2.10643
						CHANNELS 3 Zrotation Yrotation Xrotation
						End Site
						{
							OFFSET -0.00000 -0.00000 1.09838
						}
					}
				}
			}
		}
	}
	JOINT LowerBack
	{
		OFFSET 0 0 0
		CHANNELS 3 Zrotation Yrotation Xrotation
		JOINT Spine
		{
			OFFSET 0.03142 2.10496 -0.11038
			CHANNELS 3 Zrotation Yrotation Xrotation
			JOINT Spine1
			{
				OFFSET -0.01863 2.10897 -0.06956
				CHANNELS 3 Zrotation Yrotation Xrotation
				JOINT Neck
				{
					OFFSET 0 0 0
					CHANNELS 3 Zrotation Yrotation Xrotation
					JOINT Neck1
					{
						OFFSET -0.02267 1.73238 0.00451
						CHANNELS 3 Zrotation Yrotation Xrotation
						JOINT Head
						{
							OFFSET -0.05808 1.54724 -0.61749
							CHANNELS 3 Zrotation Yrotation Xrotation
							End Site
							{
								OFFSET -0.01396 1.71468 -0.21082
							}
						}
					}
				}
				JOINT LeftShoulder
				{
					OFFSET 0 0 0
					CHANNELS 3 Zrotation Yrotation Xrotation
					JOINT LeftArm
					{
						OFFSET 3.44898 0.50298 0.21920
						CHANNELS 3 Zrotation Yrotation Xrotation
						JOINT LeftForeArm
						{
							OFFSET 5.41917 -0.00000 -0.00000
							CHANNELS 3 Zrotation Yrotation Xrotation
							JOINT LeftHand
							{
								OFFSET 2.44373 -0.00000 0.00000
								CHANNELS 3 Zrotation Yrotation Xrotation
								JOINT LeftFingerBase
								{
									OFFSET 0 0 0
									CHANNELS 3 Zrotation Yrotation Xrotation
									JOINT LeftHandIndex1
									{
										OFFSET 0.72750 -0.00000 0.00000
										CHANNELS 3 Zrotation Yrotation Xrotation
										End Site
										{
											OFFSET 0.58653 -0.00000 0.00000
										}
									}
								}
								JOINT LThumb
								{
									OFFSET 0 0 0
									CHANNELS 3 Zrotation Yrotation Xrotation
									End Site
									{
										OFFSET 0.59549 -0.00000 0.59549
									}
								}
							}
						}
					}
				}
				JOINT RightShoulder
				{
					OFFSET 0 0 0
					CHANNELS 3 Zrotation Yrotation Xrotation
					JOINT RightArm
					{
						OFFSET -3.23015 0.55830 0.31051
						CHANNELS 3 Zrotation Yrotation Xrotation
						JOINT RightForeArm
						{
							OFFSET -5.58976 -0.00010 0.00014
							CHANNELS 3 Zrotation Yrotation Xrotation
							JOINT RightHand
							{
								OFFSET -2.48060 -0.00000 0.00000
								CHANNELS 3 Zrotation Yrotation Xrotation
								JOINT RightFingerBase
								{
									OFFSET 0 0 0
									CHANNELS 3 Zrotation Yrotation Xrotation
									JOINT RightHandIndex1
									{
										OFFSET -0.81601 -0.00000 0.00000
										CHANNELS 3 Zrotation Yrotation Xrotation
										End Site
										{
											OFFSET -0.65789 -0.00000 0.00000
										}
									}
								}
								JOINT RThumb
								{
									OFFSET 0 0 0
									CHANNELS 3 Zrotation Yrotation Xrotation
									End Site
									{
										OFFSET -0.66793 -0.00000 0.66793
									}
								}
							}
						}
					}
				}
			}
		}
	}
}
MOTION
Frames: 11
Frame Time: .0083333
4.4606 16.5616 -15.5521 -3.9629 6.8160 27.8519 0.0000 0.0000 0.0000 -27.0974 12.9142 -27.8364 4.8788 13.2460 40.2965 0.2467 41.2711 30.4889 0.0341 1.1914 3.2757 0.0000 0.0000 0.0000 29.1694 17.5420 -40.3455 -2.6204 -10.0536 29.1504 -1.0448 -20.7651 -35.7953 -0.9853 -6.3182 17.7106 5.1568 0.0987 -15.4425 4.3042 -0.4868 -9.7076 1.5544 -0.3358 -1.6816 -0.5535 -3.3038 -11.9013 0.0913 -5.0525 40.9087 -0.7199 -2.1305 16.8377 0.0000 -0.0000 0.0000 -87.4762 24.1313 38.6702 15.9004 -25.3854 -3.6031 -0.0000 0.0000 -2.6033 0.9724 15.8610 0.2658 -7.1250 0.0000 -0.0000 -24.4024 44.3538 0.4151 0.0000 -0.0000 0.0000 83.9297 -12.4535 4.9298 -2.5022 4.3243 -0.0945 0.0000 0.0000 8.2628 -25.4148 21.6665 -9.9500 7.1250 -0.0000 -0.0000 2.1011 -6.2516 1.8611
4.4593 16.5676 -15.5557 -3.8946 6.9173 27.8234 0.0000 0.0000 0.0000 -27.1325 12.9217 -27.7967 4.8719 13.2381 40.2665 1.9592 37.6637 34.7358 0.1290 -2.3148 -6.3766 0.0000 0.0000 0.0000 29.0801 17.5009 -40.4584 -2.6325 -10.0749 29.2198 -0.9307 -21.2294 -35.6797 -0.8623 -5.9213 16.5562 5.0910 0.0061 -15.4039 4.3416 -0.5955 -9.7420 1.6165 -0.3878 -1.7380 -0.6055 -3.2809 -11.8314 0.0980 -5.0086 40.9807 -0.6997 -2.1195 16.8620 -0.0000 0.0000 0.0000 -87.4994 24.0501 39.1580 15.7421 -25.1697 -3.5356 -0.0000 0.0000 -2.8964 1.5045 15.2475 0.3957 -7.1250 0.0000 -0.0000 -23.7003 43.8538 0.7129 -0.0000 0.0000 0.0000 84.0904 -12.6796 4.9879 -2.9773 5.1407 -0.1337 0.0000 0.0000 9.3403 -23.3723 20.6165 -8.6523 7.1250 -0.0000 -0.0000 3.2851 -7.7246 2.8185
4.4852 16.5618 -15.5160 -4.3782 6.2415 26.6371 0.0000 0.0000 0.0000 -26.8409 14.3568 -26.5629 4.8195 13.1777 40.0372 -2.4218 44.9905 23.4131 0.6941 5.3257 14.8400 0.0000 0.0000 0.0000 30.2090 16.0422 -39.2341 -2.6305 -10.0714 29.2084 -0.9865 -20.0510 -34.7037 -0.7477 -5.5232 15.4069 5.6452 0.2956 -14.8090 4.3564 -0.2657 -9.2724 1.3610 -0.2402 -1.5528 -0.4733 -3.2596 -11.8950 -0.1002 -4.9383 41.0681 -0.8029 -2.0952 16.9124 0.0000 -0.0000 0.0000 -87.4490 23.9312 39.8681 15.6378 -25.0271 -3.4913 -0.0000 0.0000 -3.0845 1.7152 15.2269 0.4506 -7.1250 0.0000 -0.0000 -23.5116 43.8582 0.7038 0.0000 -0.0000 0.0000 84.1448 -12.7302 5.0047 -3.3358 5.7550 -0.1677 0.0000 0.0000 10.9622 -21.2481 19.8798 -7.5322 7.1250 -0.0000 -0.0000 4.5830 -8.8300 3.8378
4.4628 16.5702 -15.5642 -4.1237 7.3228 27.4835 0.0000 0.0000 0.0000 -26.6662 12.9193 -27.3491 4.8740 13.2405 40.2755 -4.4641 47.3403 18.0545 1.5209 7.7873 22.0698 0.0000 0.0000 0.0000 29.6231 16.8824 -40.2099 -2.6221 -10.0567 29.1604 -1.0767 -20.6367 -35.8308 -0.9489 -6.2036 17.3762 5.4191 -0.0991 -15.1726 4.4981 -0.7614 -9.6424 1.5757 -0.4808 -1.7604 -0.4555 -3.2709 -11.9071 -0.1832 -4.9290 41.0922 -0.8424 -2.0997 16.9244 -0.0000 -0.0000 0.0000 -87.4440 23.8477 40.3357 15.6701 -25.0713 -3.5050 -0.0000 0.0000 -3.0476 1.3676 15.7821 0.3720 -7.1250 0.0000 -0.0000 -24.0307 44.3270 0.4248 -0.0000 -0.0000 0.0000 84.0736 -12.9300 5.0431 -3.8678 6.6639 -0.2253 0.0000 0.0000 12.8080 -18.6420 19.7057 -6.4896 7.1250 -0.0000 -0.0000 6.2516 -9.3721 5.1819
4.4822 16.5616 -15.5320 -4.5534 6.7473 26.3482 0.0000 0.0000 0.0000 -26.3412 14.1352 -26.2865 4.8869 13.2553 40.3317 -4.9583 47.3833 16.0978 1.7925 8.4198 23.9965 0.0000 0.0000 0.0000 30.5955 15.7130 -38.9604 -2.5944 -10.0076 29.0012 -1.0695 -19.9028 -35.0116 -0.9086 -6.0741 16.9994 5.8478 0.1193 -14.5990 4.5390 -0.5089 -9.1889 1.4080 -0.3655 -1.5814 -0.5596 -3.3233 -11.9481 -0.1366 -5.0039 41.1731 -0.8189 -2.1387 16.9866 -0.0000 0.0000 0.0000 -87.5044 23.7288 40.5200 15.6717 -25.0734 -3.5057 -0.0000 0.0000 -2.9208 1.2339 15.9958 0.3401 -7.1250 0.0000 -0.0000 -24.2325 44.5066 0.3144 -0.0000 0.0000 0.0000 83.9094 -13.0444 5.1283 -4.2720 7.3518 -0.2746 0.0000 0.0000 14.9269 -16.4786 20.1746 -5.8251 7.1250 -0.0000 -0.0000 7.6697 -9.1653 6.4094
4.4611 16.5606 -15.5775 -4.3575 7.4138 27.4392 0.0000 0.0000 0.0000 -26.4227 12.8391 -27.5287 4.9491 13.3262 40.6023 -5.7717 48.3550 14.1480 2.1039 9.0792 26.0434 0.0000 0.0000 0.0000 30.0146 16.7104 -40.1683 -2.5868 -9.9940 28.9573 -1.1150 -20.3858 -35.7727 -1.1048 -6.6785 18.7663 5.5580 -0.1269 -15.0881 4.6566 -0.8049 -9.6792 1.6613 -0.5059 -1.8475 -0.5764 -3.3771 -11.9123 -0.1900 -5.0657 41.2435 -0.8511 -2.1735 17.0153 0.0000 -0.0000 0.0000 -87.5414 23.7999 40.7493 15.7585 -25.1921 -3.5425 -0.0000 0.0000 -2.6978 1.1251 15.9918 0.3100 -7.1250 0.0000 -0.0000 -24.3244 44.4904 0.3261 0.0000 -0.0000 0.0000 83.6321 -13.2105 5.2338 -4.6072 7.9205 -0.3191 0.0000 0.0000 17.2867 -14.2850 20.7460 -5.1537 7.1250 -0.0000 -0.0000 9.0973 -8.8467 7.6902
4.4615 16.5457 -15.5859 -4.3822 7.3974 27.3024 0.0000 0.0000 0.0000 -26.4193 12.8797 -27.3642 4.9352 13.3104 40.5420 -4.9429 49.0774 18.4807 1.2204 7.0071 19.7363 0.0000 0.0000 0.0000 30.2473 16.3845 -39.8963 -2.5761 -9.9749 28.8955 -1.4151 -19.1510 -36.1329 -1.3485 -7.3516 20.7614 5.5407 -0.1686 -14.8940 4.7016 -0.8342 -9.7720 1.7179 -0.5227 -2.0494 -0.4703 -3.3648 -11.4751 -0.3273 -5.0191 41.1688 -0.9096 -2.1636 16.8509 -0.0000 -0.0000 0.0000 -87.5055 24.0476 41.2255 15.8384 -25.3011 -3.5766 -0.0000 0.0000 -2.6060 0.8869 16.1539 0.2468 -7.1250 0.0000 -0.0000 -24.5963 44.6104 0.2524 -0.0000 -0.0000 0.0000 83.2350 -13.6573 5.4365 -5.0852 8.7281 -0.3883 0.0000 0.0000 19.5262 -11.4793 21.1609 -4.1928 7.1250 -0.0000 -0.0000 10.8909 -8.7371 9.2840
4.4788 16.5533 -15.5505 -4.6693 6.6626 26.4709 0.0000 0.0000 0.0000 -26.3932 14.1084 -26.5677 4.9024 13.2731 40.3995 -6.2914 48.4063 12.0242 2.3545 9.5685 27.5904 0.0000 0.0000 0.0000 30.7172 15.7987 -39.1026 -2.5819 -9.9853 28.9291 -1.0567 -19.7599 -34.7887 -0.9502 -6.2078 17.3884 5.7195 0.0338 -14.5616 4.7307 -0.5848 -9.4525 1.6764 -0.4005 -1.8822 -0.4387 -3.3196 -11.1885 -0.3547 -4.9446 41.0772 -0.9050 -2.1371 16.7247 -0.0000 0.0000 0.0000 -87.4765 24.0576 41.9499 15.7734 -25.2124 -3.5489 -0.0000 0.0000 -2.7709 0.8468 16.5373 0.2411 -7.1250 0.0000 -0.0000 -24.7913 44.9539 0.0301 -0.0000 0.0000 0.0000 82.6160 -14.1260 12.7700 -5.6780 9.7241 -0.4834 0.0000 0.0000 14.7309 -10.0802 20.8145 -3.6146 7.1250 -0.0000 -0.0000 11.7714 -9.2189 9.9515
4.4860 16.5572 -15.5406 -4.7217 6.3001 26.1506 0.0000 0.0000 0.0000 -26.5230 14.6381 -26.3052 4.8702 13.2361 40.2589 -2.7053 46.5446 23.9437 0.5421 4.7173 13.1041 0.0000 0.0000 0.0000 30.7144 15.7871 -38.7221 -2.5854 -9.9916 28.9494 -1.0380 -19.6735 -34.5912 -0.9465 -6.1961 17.3546 5.6799 0.0551 -14.4387 4.7961 -0.5630 -9.1934 1.7663 -0.3813 -1.6668 -0.4210 -3.2747 -11.5170 -0.4363 -4.8534 41.1088 -0.9392 -2.1052 16.8213 -0.0000 -0.0000 0.0000 -87.5540 23.6734 42.4923 15.5963 -24.9702 -3.4738 -0.0000 0.0000 -2.8598 0.8703 16.6139 0.2489 -7.1250 0.0000 -0.0000 -24.8034 45.0261 -0.0171 -0.0000 -0.0000 0.0000 81.7684 -14.1942 19.0946 -6.4565 11.0213 -0.6236 0.0000 0.0000 11.6441 -8.2699 19.8495 -2.8254 7.1250 -0.0000 -0.0000 12.9204 -10.3290 10.6767
4.4867 16.5574 -15.5460 -4.6660 6.1753 26.1461 0.0000 0.0000 0.0000 -26.6947 14.7006 -26.4270 4.8743 13.2408 40.2768 -3.4295 45.9922 20.5293 0.9630 6.2483 17.5067 0.0000 0.0000 0.0000 30.5774 15.9210 -38.7301 -2.5990 -10.0157 29.0275 -1.0131 -19.7705 -34.5534 -0.9414 -6.1797 17.3066 5.5752 0.1315 -14.4693 4.6777 -0.4435 -9.3094 1.7166 -0.3224 -1.7724 -0.2397 -3.3678 -10.9537 -0.4151 -5.0534 41.0393 -0.9780 -2.1635 16.6340 0.0000 -0.0000 0.0000 -87.1457 23.8653 43.4015 15.5612 -24.9220 -3.4590 -0.0000 0.0000 -2.7246 0.5257 16.7920 0.1519 -7.1250 0.0000 -0.0000 -25.1772 45.1465 -0.0973 0.0000 -0.0000 0.0000 81.1927 -14.8206 23.7340 -7.2902 12.3958 -0.7928 0.0000 0.0000 9.3345 -6.3237 19.1563 -2.0827 7.1250 -0.0000 -0.0000 14.1720 -11.1547 11.5301
4.4813 16.5553 -15.5648 -4.5508 6.4292 26.4874 0.0000 0.0000 0.0000 -26.7740 14.1907 -26.8588 4.9251 13.2989 40.4980 -1.9293 45.6000 25.9009 0.3227 3.6514 10.0979 0.0000 0.0000 0.0000 30.4058 16.1028 -39.1693 -2.6028 -10.0225 29.0495 -0.9845 -20.0590 -34.7007 -0.9128 -6.0877 17.0392 5.4157 -0.0002 -14.5638 4.7104 -0.5945 -9.4792 1.8235 -0.3935 -1.9026 0.0327 -3.3398 -10.9512 -0.5889 -5.0210 41.0457 -1.0979 -2.1323 16.6185 -0.0000 0.0000 0.0000 -86.9516 23.8138 44.2030 15.5631 -24.9247 -3.4598 -0.0000 0.0000 -2.8185 0.1859 17.1674 0.0549 -7.1250 0.0000 -0.0000 -25.6342 45.4445 -0.3014 -0.0000 0.0000 0.0000 80.1493 -15.1801 29.1129 -8.2711 13.9914 -1.0167 0.0000 0.0000 6.4763 -4.3843 18.1940 -1.3714 7.1250 -0.0000 -0.0000 15.4431 -12.2122 12.2927
